<mxfile host="65bd71144e">
    <diagram name="Page-1" id="CjnsRdnZkcc44lROkodG">
        <mxGraphModel dx="671" dy="593" grid="1" gridSize="10" guides="1" tooltips="1" connect="1" arrows="1" fold="1" page="1" pageScale="1" pageWidth="827" pageHeight="1169" math="0" shadow="0">
            <root>
                <mxCell id="0"/>
                <mxCell id="1" parent="0"/>
                <mxCell id="2" value="" style="rounded=0;whiteSpace=wrap;html=1;" parent="1" vertex="1">
                    <mxGeometry x="20" y="50" width="1440" height="930" as="geometry"/>
                </mxCell>
                <mxCell id="O-shyT19sQsiW26_N4do-6" style="edgeStyle=orthogonalEdgeStyle;rounded=0;orthogonalLoop=1;jettySize=auto;html=1;exitX=1;exitY=0.25;exitDx=0;exitDy=0;entryX=0;entryY=0.75;entryDx=0;entryDy=0;strokeWidth=3;" parent="1" source="O-shyT19sQsiW26_N4do-2" target="O-shyT19sQsiW26_N4do-4" edge="1">
                    <mxGeometry relative="1" as="geometry">
                        <Array as="points">
                            <mxPoint x="329.99999999999994" y="578"/>
                            <mxPoint x="329.99999999999994" y="689"/>
                        </Array>
                    </mxGeometry>
                </mxCell>
                <mxCell id="O-shyT19sQsiW26_N4do-16" style="edgeStyle=orthogonalEdgeStyle;rounded=0;orthogonalLoop=1;jettySize=auto;html=1;exitX=1;exitY=0.25;exitDx=0;exitDy=0;entryX=0;entryY=0.5;entryDx=0;entryDy=0;strokeWidth=3;" parent="1" source="O-shyT19sQsiW26_N4do-2" target="O-shyT19sQsiW26_N4do-15" edge="1">
                    <mxGeometry relative="1" as="geometry">
                        <Array as="points">
                            <mxPoint x="670" y="578"/>
                            <mxPoint x="670" y="282"/>
                        </Array>
                    </mxGeometry>
                </mxCell>
                <mxCell id="O-shyT19sQsiW26_N4do-44" style="edgeStyle=orthogonalEdgeStyle;rounded=0;orthogonalLoop=1;jettySize=auto;html=1;exitX=1;exitY=0.25;exitDx=0;exitDy=0;entryX=0;entryY=0.75;entryDx=0;entryDy=0;strokeWidth=3;" parent="1" source="O-shyT19sQsiW26_N4do-2" target="O-shyT19sQsiW26_N4do-42" edge="1">
                    <mxGeometry relative="1" as="geometry">
                        <Array as="points">
                            <mxPoint x="670" y="578"/>
                            <mxPoint x="670" y="883"/>
                        </Array>
                    </mxGeometry>
                </mxCell>
                <mxCell id="O-shyT19sQsiW26_N4do-2" value="" style="rounded=0;whiteSpace=wrap;html=1;fillColor=#E6E6E6;strokeWidth=3;" parent="1" vertex="1">
                    <mxGeometry x="174.99999999999994" y="528" width="133" height="201" as="geometry"/>
                </mxCell>
                <mxCell id="O-shyT19sQsiW26_N4do-7" value="&lt;span&gt;Instr&lt;/span&gt;" style="text;html=1;align=left;verticalAlign=middle;whiteSpace=wrap;rounded=0;fontSize=18;fontStyle=2" parent="1" vertex="1">
                    <mxGeometry x="317.99999999999994" y="550" width="52" height="30" as="geometry"/>
                </mxCell>
                <mxCell id="O-shyT19sQsiW26_N4do-10" style="edgeStyle=orthogonalEdgeStyle;rounded=0;orthogonalLoop=1;jettySize=auto;html=1;exitX=1;exitY=0.75;exitDx=0;exitDy=0;entryX=0.202;entryY=1.061;entryDx=0;entryDy=0;entryPerimeter=0;strokeWidth=3;" parent="1" source="O-shyT19sQsiW26_N4do-4" target="O-shyT19sQsiW26_N4do-8" edge="1">
                    <mxGeometry relative="1" as="geometry"/>
                </mxCell>
                <mxCell id="O-shyT19sQsiW26_N4do-53" style="edgeStyle=orthogonalEdgeStyle;rounded=0;orthogonalLoop=1;jettySize=auto;html=1;exitX=1.002;exitY=0.401;exitDx=0;exitDy=0;entryX=0.25;entryY=1;entryDx=0;entryDy=0;exitPerimeter=0;strokeWidth=3;" parent="1" source="O-shyT19sQsiW26_N4do-13" target="O-shyT19sQsiW26_N4do-33" edge="1">
                    <mxGeometry relative="1" as="geometry"/>
                </mxCell>
                <mxCell id="O-shyT19sQsiW26_N4do-13" value="" style="rounded=0;whiteSpace=wrap;html=1;fillColor=#E6E6E6;strokeWidth=3;" parent="1" vertex="1">
                    <mxGeometry x="763" y="500" width="198" height="304" as="geometry"/>
                </mxCell>
                <mxCell id="O-shyT19sQsiW26_N4do-8" value="" style="shape=trapezoid;perimeter=trapezoidPerimeter;whiteSpace=wrap;html=1;fixedSize=1;rotation=90;fillColor=none;strokeWidth=3;size=9.929862039130967;" parent="1" vertex="1">
                    <mxGeometry x="599.75" y="693.25" width="68" height="33.5" as="geometry"/>
                </mxCell>
                <mxCell id="O-shyT19sQsiW26_N4do-14" style="edgeStyle=orthogonalEdgeStyle;rounded=0;orthogonalLoop=1;jettySize=auto;html=1;exitX=1;exitY=0.25;exitDx=0;exitDy=0;entryX=-0.007;entryY=0.257;entryDx=0;entryDy=0;strokeWidth=3;entryPerimeter=0;" parent="1" source="O-shyT19sQsiW26_N4do-2" target="O-shyT19sQsiW26_N4do-13" edge="1">
                    <mxGeometry relative="1" as="geometry"/>
                </mxCell>
                <mxCell id="O-shyT19sQsiW26_N4do-36" style="edgeStyle=orthogonalEdgeStyle;rounded=0;orthogonalLoop=1;jettySize=auto;html=1;exitX=1;exitY=0.75;exitDx=0;exitDy=0;entryX=0;entryY=0.5;entryDx=0;entryDy=0;strokeWidth=3;" parent="1" source="O-shyT19sQsiW26_N4do-15" target="O-shyT19sQsiW26_N4do-35" edge="1">
                    <mxGeometry relative="1" as="geometry"/>
                </mxCell>
                <mxCell id="O-shyT19sQsiW26_N4do-38" style="edgeStyle=orthogonalEdgeStyle;rounded=0;orthogonalLoop=1;jettySize=auto;html=1;exitX=1.005;exitY=0.904;exitDx=0;exitDy=0;entryX=0;entryY=0.5;entryDx=0;entryDy=0;strokeWidth=3;exitPerimeter=0;" parent="1" source="O-shyT19sQsiW26_N4do-15" target="O-shyT19sQsiW26_N4do-33" edge="1">
                    <mxGeometry relative="1" as="geometry"/>
                </mxCell>
                <mxCell id="O-shyT19sQsiW26_N4do-40" style="edgeStyle=orthogonalEdgeStyle;rounded=0;orthogonalLoop=1;jettySize=auto;html=1;exitX=1;exitY=0.5;exitDx=0;exitDy=0;entryX=0;entryY=0.5;entryDx=0;entryDy=0;strokeWidth=3;strokeColor=#808080;" parent="1" source="O-shyT19sQsiW26_N4do-15" target="O-shyT19sQsiW26_N4do-8" edge="1">
                    <mxGeometry relative="1" as="geometry">
                        <Array as="points">
                            <mxPoint x="1230" y="282"/>
                            <mxPoint x="1230" y="70"/>
                            <mxPoint x="634" y="70"/>
                        </Array>
                    </mxGeometry>
                </mxCell>
                <mxCell id="16" style="edgeStyle=orthogonalEdgeStyle;html=1;exitX=1;exitY=0.25;exitDx=0;exitDy=0;entryX=0.75;entryY=0;entryDx=0;entryDy=0;strokeColor=#B3B3B3;strokeWidth=3;rounded=0;" parent="1" source="O-shyT19sQsiW26_N4do-15" target="O-shyT19sQsiW26_N4do-13" edge="1">
                    <mxGeometry relative="1" as="geometry">
                        <Array as="points">
                            <mxPoint x="1070" y="214"/>
                            <mxPoint x="1070" y="450"/>
                            <mxPoint x="912" y="450"/>
                        </Array>
                    </mxGeometry>
                </mxCell>
                <mxCell id="O-shyT19sQsiW26_N4do-15" value="" style="rounded=1;whiteSpace=wrap;html=1;fillColor=#E6E6E6;strokeWidth=3;arcSize=22;" parent="1" vertex="1">
                    <mxGeometry x="760" y="145.99999999999994" width="91" height="272" as="geometry"/>
                </mxCell>
                <mxCell id="O-shyT19sQsiW26_N4do-17" value="" style="group" parent="1" vertex="1" connectable="0">
                    <mxGeometry x="383.99999999999994" y="636" width="197" height="71" as="geometry"/>
                </mxCell>
                <mxCell id="O-shyT19sQsiW26_N4do-4" value="&lt;p style=&quot;line-height: 120%;&quot;&gt;&lt;br&gt;&lt;/p&gt;" style="shape=manualInput;whiteSpace=wrap;html=1;fillColor=none;strokeWidth=3;size=29;align=center;" parent="O-shyT19sQsiW26_N4do-17" vertex="1">
                    <mxGeometry width="197" height="71" as="geometry"/>
                </mxCell>
                <mxCell id="O-shyT19sQsiW26_N4do-5" value="ImmediateExtend" style="text;html=1;align=center;verticalAlign=middle;whiteSpace=wrap;rounded=0;fontSize=18;" parent="O-shyT19sQsiW26_N4do-17" vertex="1">
                    <mxGeometry x="26.5" y="30" width="144" height="30" as="geometry"/>
                </mxCell>
                <mxCell id="O-shyT19sQsiW26_N4do-18" value="[15:13]" style="text;html=1;align=left;verticalAlign=middle;whiteSpace=wrap;rounded=0;fontSize=18;fontStyle=1" parent="1" vertex="1">
                    <mxGeometry x="696" y="250.99999999999994" width="60" height="30" as="geometry"/>
                </mxCell>
                <mxCell id="O-shyT19sQsiW26_N4do-19" value="&lt;font style=&quot;font-size: 22px;&quot;&gt;Contol Unit&lt;/font&gt;" style="text;html=1;align=center;verticalAlign=middle;whiteSpace=wrap;rounded=0;fontSize=18;fontStyle=1" parent="1" vertex="1">
                    <mxGeometry x="760" y="185.99999999999994" width="87" height="60" as="geometry"/>
                </mxCell>
                <mxCell id="O-shyT19sQsiW26_N4do-20" value="[12:10]" style="text;html=1;align=left;verticalAlign=middle;whiteSpace=wrap;rounded=0;fontSize=18;fontStyle=1" parent="1" vertex="1">
                    <mxGeometry x="700" y="540" width="50" height="40" as="geometry"/>
                </mxCell>
                <mxCell id="O-shyT19sQsiW26_N4do-21" value="" style="triangle;whiteSpace=wrap;html=1;fillColor=none;strokeWidth=3;rotation=90;" parent="1" vertex="1">
                    <mxGeometry x="785" y="495" width="20" height="30" as="geometry"/>
                </mxCell>
                <mxCell id="O-shyT19sQsiW26_N4do-22" value="AddrA" style="text;html=1;align=left;verticalAlign=middle;whiteSpace=wrap;rounded=0;fontSize=18;fontStyle=2" parent="1" vertex="1">
                    <mxGeometry x="769" y="560" width="60" height="40" as="geometry"/>
                </mxCell>
                <mxCell id="O-shyT19sQsiW26_N4do-23" value="CLK" style="text;html=1;align=center;verticalAlign=middle;whiteSpace=wrap;rounded=0;fontSize=18;fontStyle=2" parent="1" vertex="1">
                    <mxGeometry x="765" y="462.99999999999994" width="60" height="20" as="geometry"/>
                </mxCell>
                <mxCell id="O-shyT19sQsiW26_N4do-24" value="" style="endArrow=none;html=1;rounded=0;exitX=0;exitY=0.5;exitDx=0;exitDy=0;entryX=0.5;entryY=1;entryDx=0;entryDy=0;strokeWidth=3;" parent="1" source="O-shyT19sQsiW26_N4do-21" target="O-shyT19sQsiW26_N4do-23" edge="1">
                    <mxGeometry width="50" height="50" relative="1" as="geometry">
                        <mxPoint x="790" y="533" as="sourcePoint"/>
                        <mxPoint x="840" y="483" as="targetPoint"/>
                    </mxGeometry>
                </mxCell>
                <mxCell id="O-shyT19sQsiW26_N4do-25" style="edgeStyle=orthogonalEdgeStyle;rounded=0;orthogonalLoop=1;jettySize=auto;html=1;exitX=1;exitY=0.25;exitDx=0;exitDy=0;strokeWidth=3;entryX=-0.002;entryY=0.391;entryDx=0;entryDy=0;entryPerimeter=0;" parent="1" source="O-shyT19sQsiW26_N4do-2" target="O-shyT19sQsiW26_N4do-13" edge="1">
                    <mxGeometry relative="1" as="geometry">
                        <Array as="points">
                            <mxPoint x="670" y="578"/>
                            <mxPoint x="670" y="619"/>
                            <mxPoint x="750" y="619"/>
                        </Array>
                        <mxPoint x="750" y="619" as="targetPoint"/>
                    </mxGeometry>
                </mxCell>
                <mxCell id="O-shyT19sQsiW26_N4do-26" value="[9:7]" style="text;html=1;align=left;verticalAlign=middle;whiteSpace=wrap;rounded=0;fontSize=18;fontStyle=1" parent="1" vertex="1">
                    <mxGeometry x="703" y="582" width="37" height="40" as="geometry"/>
                </mxCell>
                <mxCell id="O-shyT19sQsiW26_N4do-27" value="AddrB" style="text;html=1;align=left;verticalAlign=middle;whiteSpace=wrap;rounded=0;fontSize=18;fontStyle=2" parent="1" vertex="1">
                    <mxGeometry x="770" y="599" width="60" height="40" as="geometry"/>
                </mxCell>
                <mxCell id="O-shyT19sQsiW26_N4do-28" style="edgeStyle=orthogonalEdgeStyle;rounded=0;orthogonalLoop=1;jettySize=auto;html=1;exitX=1;exitY=0.25;exitDx=0;exitDy=0;entryX=-0.005;entryY=0.518;entryDx=0;entryDy=0;entryPerimeter=0;strokeWidth=3;" parent="1" source="O-shyT19sQsiW26_N4do-2" target="O-shyT19sQsiW26_N4do-13" edge="1">
                    <mxGeometry relative="1" as="geometry">
                        <Array as="points">
                            <mxPoint x="670" y="578"/>
                            <mxPoint x="670" y="657"/>
                        </Array>
                    </mxGeometry>
                </mxCell>
                <mxCell id="O-shyT19sQsiW26_N4do-29" value="AddrC" style="text;html=1;align=left;verticalAlign=middle;whiteSpace=wrap;rounded=0;fontSize=18;fontStyle=2" parent="1" vertex="1">
                    <mxGeometry x="769" y="637" width="60" height="40" as="geometry"/>
                </mxCell>
                <mxCell id="O-shyT19sQsiW26_N4do-30" style="edgeStyle=orthogonalEdgeStyle;rounded=0;orthogonalLoop=1;jettySize=auto;html=1;exitX=0.5;exitY=0;exitDx=0;exitDy=0;entryX=0.003;entryY=0.692;entryDx=0;entryDy=0;entryPerimeter=0;strokeWidth=3;fillColor=#f8cecc;strokeColor=#FF0000;" parent="1" source="O-shyT19sQsiW26_N4do-8" target="O-shyT19sQsiW26_N4do-13" edge="1">
                    <mxGeometry relative="1" as="geometry"/>
                </mxCell>
                <mxCell id="O-shyT19sQsiW26_N4do-31" value="InDataA" style="text;html=1;align=left;verticalAlign=middle;whiteSpace=wrap;rounded=0;fontSize=18;fontStyle=2" parent="1" vertex="1">
                    <mxGeometry x="769" y="690" width="60" height="40" as="geometry"/>
                </mxCell>
                <mxCell id="O-shyT19sQsiW26_N4do-32" value="&lt;font style=&quot;font-size: 22px;&quot;&gt;Register File&lt;/font&gt;" style="text;html=1;align=center;verticalAlign=middle;whiteSpace=wrap;rounded=0;fontSize=18;fontStyle=1" parent="1" vertex="1">
                    <mxGeometry x="867" y="687" width="87" height="60" as="geometry"/>
                </mxCell>
                <mxCell id="O-shyT19sQsiW26_N4do-33" value="" style="shape=trapezoid;perimeter=trapezoidPerimeter;whiteSpace=wrap;html=1;fixedSize=1;rotation=90;fillColor=none;strokeWidth=3;size=9.929862039130967;" parent="1" vertex="1">
                    <mxGeometry x="1081" y="622" width="68" height="33.5" as="geometry"/>
                </mxCell>
                <mxCell id="O-shyT19sQsiW26_N4do-47" style="edgeStyle=orthogonalEdgeStyle;rounded=0;orthogonalLoop=1;jettySize=auto;html=1;exitX=0.25;exitY=0;exitDx=0;exitDy=0;entryX=0.75;entryY=1;entryDx=0;entryDy=0;fontSize=13;strokeWidth=3;" parent="1" source="O-shyT19sQsiW26_N4do-35" target="O-shyT19sQsiW26_N4do-8" edge="1">
                    <mxGeometry relative="1" as="geometry">
                        <Array as="points">
                            <mxPoint x="1400" y="591"/>
                            <mxPoint x="1400" y="950"/>
                            <mxPoint x="590" y="950"/>
                            <mxPoint x="590" y="727"/>
                        </Array>
                    </mxGeometry>
                </mxCell>
                <mxCell id="O-shyT19sQsiW26_N4do-35" value="" style="shape=trapezoid;perimeter=trapezoidPerimeter;whiteSpace=wrap;html=1;fixedSize=1;rotation=90;fillColor=#E6E6E6;strokeWidth=3;size=24.597983063342326;" parent="1" vertex="1">
                    <mxGeometry x="1149" y="599" width="169" height="67.75" as="geometry"/>
                </mxCell>
                <mxCell id="O-shyT19sQsiW26_N4do-37" value="ALUOpcode" style="text;html=1;align=left;verticalAlign=middle;whiteSpace=wrap;rounded=0;fontSize=18;fontStyle=2" parent="1" vertex="1">
                    <mxGeometry x="856" y="315.99999999999994" width="109" height="40" as="geometry"/>
                </mxCell>
                <mxCell id="O-shyT19sQsiW26_N4do-39" value="UseImmediate" style="text;html=1;align=left;verticalAlign=middle;whiteSpace=wrap;rounded=0;fontSize=18;fontStyle=2" parent="1" vertex="1">
                    <mxGeometry x="856" y="358.99999999999994" width="134" height="40" as="geometry"/>
                </mxCell>
                <mxCell id="O-shyT19sQsiW26_N4do-41" value="" style="group" parent="1" vertex="1" connectable="0">
                    <mxGeometry x="760" y="830" width="197" height="71" as="geometry"/>
                </mxCell>
                <mxCell id="O-shyT19sQsiW26_N4do-42" value="&lt;p style=&quot;line-height: 120%;&quot;&gt;&lt;br&gt;&lt;/p&gt;" style="shape=manualInput;whiteSpace=wrap;html=1;fillColor=none;strokeWidth=3;size=29;align=center;" parent="O-shyT19sQsiW26_N4do-41" vertex="1">
                    <mxGeometry width="197" height="71" as="geometry"/>
                </mxCell>
                <mxCell id="13" value="" style="group" parent="O-shyT19sQsiW26_N4do-41" vertex="1" connectable="0">
                    <mxGeometry x="26.5" y="16" width="144" height="50" as="geometry"/>
                </mxCell>
                <mxCell id="O-shyT19sQsiW26_N4do-43" value="ImmediateExtend" style="text;html=1;align=center;verticalAlign=middle;whiteSpace=wrap;rounded=0;fontSize=18;" parent="13" vertex="1">
                    <mxGeometry y="20" width="144" height="30" as="geometry"/>
                </mxCell>
                <mxCell id="12" value="signed" style="text;html=1;align=right;verticalAlign=middle;whiteSpace=wrap;rounded=0;fontSize=18;" parent="13" vertex="1">
                    <mxGeometry x="27" width="117" height="30" as="geometry"/>
                </mxCell>
                <mxCell id="O-shyT19sQsiW26_N4do-45" value="1" style="text;html=1;align=left;verticalAlign=middle;whiteSpace=wrap;rounded=0;fontSize=18;fontStyle=0" parent="1" vertex="1">
                    <mxGeometry x="622.6300000000001" y="673" width="22.25" height="40" as="geometry"/>
                </mxCell>
                <mxCell id="O-shyT19sQsiW26_N4do-46" value="0" style="text;html=1;align=left;verticalAlign=middle;whiteSpace=wrap;rounded=0;fontSize=18;fontStyle=0" parent="1" vertex="1">
                    <mxGeometry x="624" y="704" width="22.25" height="40" as="geometry"/>
                </mxCell>
                <mxCell id="O-shyT19sQsiW26_N4do-48" value="ALUResult" style="text;html=1;align=left;verticalAlign=middle;whiteSpace=wrap;rounded=0;fontSize=18;fontStyle=2" parent="1" vertex="1">
                    <mxGeometry x="1280" y="557.5" width="110" height="40" as="geometry"/>
                </mxCell>
                <mxCell id="O-shyT19sQsiW26_N4do-49" value="B" style="text;html=1;align=left;verticalAlign=middle;whiteSpace=wrap;rounded=0;fontSize=18;fontStyle=2" parent="1" vertex="1">
                    <mxGeometry x="1170" y="547" width="20" height="40" as="geometry"/>
                </mxCell>
                <mxCell id="O-shyT19sQsiW26_N4do-50" value="C" style="text;html=1;align=left;verticalAlign=middle;whiteSpace=wrap;rounded=0;fontSize=18;fontStyle=2" parent="1" vertex="1">
                    <mxGeometry x="1170" y="599" width="20" height="40" as="geometry"/>
                </mxCell>
                <mxCell id="O-shyT19sQsiW26_N4do-51" style="edgeStyle=orthogonalEdgeStyle;rounded=0;orthogonalLoop=1;jettySize=auto;html=1;exitX=0.5;exitY=0;exitDx=0;exitDy=0;entryX=0.539;entryY=1.064;entryDx=0;entryDy=0;entryPerimeter=0;strokeWidth=3;" parent="1" source="O-shyT19sQsiW26_N4do-33" target="O-shyT19sQsiW26_N4do-35" edge="1">
                    <mxGeometry relative="1" as="geometry"/>
                </mxCell>
                <mxCell id="O-shyT19sQsiW26_N4do-52" style="edgeStyle=orthogonalEdgeStyle;rounded=0;orthogonalLoop=1;jettySize=auto;html=1;exitX=1.001;exitY=0.278;exitDx=0;exitDy=0;entryX=0.214;entryY=1.064;entryDx=0;entryDy=0;entryPerimeter=0;strokeWidth=3;exitPerimeter=0;" parent="1" source="O-shyT19sQsiW26_N4do-13" target="O-shyT19sQsiW26_N4do-35" edge="1">
                    <mxGeometry relative="1" as="geometry"/>
                </mxCell>
                <mxCell id="O-shyT19sQsiW26_N4do-54" style="edgeStyle=orthogonalEdgeStyle;rounded=0;orthogonalLoop=1;jettySize=auto;html=1;exitX=1;exitY=0.75;exitDx=0;exitDy=0;entryX=0.75;entryY=1;entryDx=0;entryDy=0;strokeWidth=3;" parent="1" source="O-shyT19sQsiW26_N4do-42" target="O-shyT19sQsiW26_N4do-33" edge="1">
                    <mxGeometry relative="1" as="geometry">
                        <Array as="points">
                            <mxPoint x="1060" y="883"/>
                            <mxPoint x="1060" y="656"/>
                        </Array>
                    </mxGeometry>
                </mxCell>
                <mxCell id="O-shyT19sQsiW26_N4do-55" style="edgeStyle=orthogonalEdgeStyle;rounded=0;orthogonalLoop=1;jettySize=auto;html=1;exitX=1.003;exitY=0.531;exitDx=0;exitDy=0;entryX=0.852;entryY=1.008;entryDx=0;entryDy=0;entryPerimeter=0;exitPerimeter=0;strokeWidth=3;strokeColor=#808080;" parent="1" source="O-shyT19sQsiW26_N4do-13" target="O-shyT19sQsiW26_N4do-35" edge="1">
                    <mxGeometry relative="1" as="geometry">
                        <Array as="points">
                            <mxPoint x="1030" y="661"/>
                            <mxPoint x="1030" y="710"/>
                            <mxPoint x="1140" y="710"/>
                            <mxPoint x="1140" y="692"/>
                        </Array>
                    </mxGeometry>
                </mxCell>
                <mxCell id="O-shyT19sQsiW26_N4do-56" value="InFlags" style="text;html=1;align=left;verticalAlign=middle;whiteSpace=wrap;rounded=0;fontSize=18;fontStyle=2" parent="1" vertex="1">
                    <mxGeometry x="1130" y="655.5" width="71" height="40" as="geometry"/>
                </mxCell>
                <mxCell id="O-shyT19sQsiW26_N4do-57" value="1" style="text;html=1;align=left;verticalAlign=middle;whiteSpace=wrap;rounded=0;fontSize=18;fontStyle=0" parent="1" vertex="1">
                    <mxGeometry x="1107" y="635" width="22.25" height="40" as="geometry"/>
                </mxCell>
                <mxCell id="O-shyT19sQsiW26_N4do-58" value="0" style="text;html=1;align=left;verticalAlign=middle;whiteSpace=wrap;rounded=0;fontSize=18;fontStyle=0" parent="1" vertex="1">
                    <mxGeometry x="1106" y="607" width="22.25" height="40" as="geometry"/>
                </mxCell>
                <mxCell id="O-shyT19sQsiW26_N4do-59" value="OutDataB" style="text;html=1;align=right;verticalAlign=middle;whiteSpace=wrap;rounded=0;fontSize=18;fontStyle=2" parent="1" vertex="1">
                    <mxGeometry x="863.5" y="560" width="90.5" height="40" as="geometry"/>
                </mxCell>
                <mxCell id="O-shyT19sQsiW26_N4do-60" value="OutDataC" style="text;html=1;align=right;verticalAlign=middle;whiteSpace=wrap;rounded=0;fontSize=18;fontStyle=2" parent="1" vertex="1">
                    <mxGeometry x="863.5" y="600" width="90.5" height="40" as="geometry"/>
                </mxCell>
                <mxCell id="O-shyT19sQsiW26_N4do-61" value="OutFlags" style="text;html=1;align=right;verticalAlign=middle;whiteSpace=wrap;rounded=0;fontSize=18;fontStyle=2" parent="1" vertex="1">
                    <mxGeometry x="863.5" y="640" width="90.5" height="40" as="geometry"/>
                </mxCell>
                <mxCell id="O-shyT19sQsiW26_N4do-62" value="DebugData" style="text;html=1;align=right;verticalAlign=middle;whiteSpace=wrap;rounded=0;fontSize=18;fontStyle=2" parent="1" vertex="1">
                    <mxGeometry x="850" y="744" width="104" height="40" as="geometry"/>
                </mxCell>
                <mxCell id="O-shyT19sQsiW26_N4do-63" value="InNewFlags" style="text;html=1;align=left;verticalAlign=middle;whiteSpace=wrap;rounded=0;fontSize=18;fontStyle=2" parent="1" vertex="1">
                    <mxGeometry x="769" y="767" width="117" height="40" as="geometry"/>
                </mxCell>
                <mxCell id="O-shyT19sQsiW26_N4do-64" style="edgeStyle=orthogonalEdgeStyle;rounded=0;orthogonalLoop=1;jettySize=auto;html=1;exitX=0.75;exitY=0;exitDx=0;exitDy=0;strokeWidth=3;strokeColor=#808080;entryX=-0.002;entryY=0.953;entryDx=0;entryDy=0;entryPerimeter=0;" parent="1" source="O-shyT19sQsiW26_N4do-35" target="O-shyT19sQsiW26_N4do-13" edge="1">
                    <mxGeometry relative="1" as="geometry">
                        <Array as="points">
                            <mxPoint x="1380" y="675"/>
                            <mxPoint x="1380" y="930"/>
                            <mxPoint x="640" y="930"/>
                            <mxPoint x="640" y="790"/>
                        </Array>
                        <mxPoint x="760" y="790" as="targetPoint"/>
                    </mxGeometry>
                </mxCell>
                <mxCell id="O-shyT19sQsiW26_N4do-65" value="OutFlags" style="text;html=1;align=left;verticalAlign=middle;whiteSpace=wrap;rounded=0;fontSize=18;fontStyle=2" parent="1" vertex="1">
                    <mxGeometry x="1280" y="640" width="110" height="40" as="geometry"/>
                </mxCell>
                <mxCell id="O-shyT19sQsiW26_N4do-71" style="edgeStyle=orthogonalEdgeStyle;rounded=0;orthogonalLoop=1;jettySize=auto;html=1;exitX=1;exitY=0.5;exitDx=0;exitDy=0;entryX=0.25;entryY=1;entryDx=0;entryDy=0;strokeWidth=3;" parent="1" source="O-shyT19sQsiW26_N4do-66" target="O-shyT19sQsiW26_N4do-70" edge="1">
                    <mxGeometry relative="1" as="geometry">
                        <Array as="points">
                            <mxPoint x="139.99999999999994" y="577"/>
                            <mxPoint x="139.99999999999994" y="784"/>
                        </Array>
                    </mxGeometry>
                </mxCell>
                <mxCell id="O-shyT19sQsiW26_N4do-73" style="edgeStyle=orthogonalEdgeStyle;rounded=0;orthogonalLoop=1;jettySize=auto;html=1;exitX=1;exitY=0.5;exitDx=0;exitDy=0;entryX=0;entryY=0.25;entryDx=0;entryDy=0;strokeWidth=3;" parent="1" source="O-shyT19sQsiW26_N4do-66" target="O-shyT19sQsiW26_N4do-2" edge="1">
                    <mxGeometry relative="1" as="geometry"/>
                </mxCell>
                <mxCell id="O-shyT19sQsiW26_N4do-66" value="" style="rounded=0;whiteSpace=wrap;html=1;fillColor=none;strokeWidth=3;" parent="1" vertex="1">
                    <mxGeometry x="89.99999999999996" y="542" width="32" height="70" as="geometry"/>
                </mxCell>
                <mxCell id="O-shyT19sQsiW26_N4do-67" value="" style="triangle;whiteSpace=wrap;html=1;fillColor=none;strokeWidth=3;rotation=90;" parent="1" vertex="1">
                    <mxGeometry x="95.99999999999996" y="537" width="20" height="30" as="geometry"/>
                </mxCell>
                <mxCell id="O-shyT19sQsiW26_N4do-68" value="CLK" style="text;html=1;align=center;verticalAlign=middle;whiteSpace=wrap;rounded=0;fontSize=18;fontStyle=2" parent="1" vertex="1">
                    <mxGeometry x="75.99999999999996" y="499.99999999999994" width="60" height="25" as="geometry"/>
                </mxCell>
                <mxCell id="O-shyT19sQsiW26_N4do-69" value="" style="endArrow=none;html=1;rounded=0;exitX=0;exitY=0.5;exitDx=0;exitDy=0;entryX=0.5;entryY=1;entryDx=0;entryDy=0;strokeWidth=3;" parent="1" source="O-shyT19sQsiW26_N4do-67" target="O-shyT19sQsiW26_N4do-68" edge="1">
                    <mxGeometry width="50" height="50" relative="1" as="geometry">
                        <mxPoint x="100.99999999999996" y="575" as="sourcePoint"/>
                        <mxPoint x="150.99999999999994" y="525" as="targetPoint"/>
                    </mxGeometry>
                </mxCell>
                <mxCell id="O-shyT19sQsiW26_N4do-72" style="edgeStyle=orthogonalEdgeStyle;rounded=0;orthogonalLoop=1;jettySize=auto;html=1;exitX=0.5;exitY=0;exitDx=0;exitDy=0;entryX=0;entryY=0.5;entryDx=0;entryDy=0;strokeWidth=3;" parent="1" source="O-shyT19sQsiW26_N4do-70" target="O-shyT19sQsiW26_N4do-66" edge="1">
                    <mxGeometry relative="1" as="geometry">
                        <Array as="points">
                            <mxPoint x="249.99999999999994" y="801"/>
                            <mxPoint x="249.99999999999994" y="880"/>
                            <mxPoint x="49.99999999999996" y="880"/>
                            <mxPoint x="49.99999999999996" y="577"/>
                        </Array>
                    </mxGeometry>
                </mxCell>
                <mxCell id="O-shyT19sQsiW26_N4do-70" value="&lt;font style=&quot;font-size: 21px;&quot;&gt;&lt;b&gt;+&lt;/b&gt;&lt;/font&gt;" style="shape=trapezoid;perimeter=trapezoidPerimeter;whiteSpace=wrap;html=1;fixedSize=1;rotation=90;fillColor=none;strokeWidth=3;size=9.929862039130967;" parent="1" vertex="1">
                    <mxGeometry x="159.99999999999994" y="784" width="68" height="33.5" as="geometry"/>
                </mxCell>
                <mxCell id="O-shyT19sQsiW26_N4do-74" value="&lt;span&gt;PC&lt;/span&gt;" style="text;html=1;align=left;verticalAlign=middle;whiteSpace=wrap;rounded=0;fontSize=18;fontStyle=2" parent="1" vertex="1">
                    <mxGeometry x="129.99999999999994" y="548" width="37" height="30" as="geometry"/>
                </mxCell>
                <mxCell id="O-shyT19sQsiW26_N4do-75" value="&lt;font style=&quot;font-size: 22px;&quot;&gt;Instruction Memory&lt;/font&gt;" style="text;html=1;align=center;verticalAlign=middle;whiteSpace=wrap;rounded=0;fontSize=18;fontStyle=1" parent="1" vertex="1">
                    <mxGeometry x="175.99999999999994" y="600" width="132" height="60" as="geometry"/>
                </mxCell>
                <mxCell id="O-shyT19sQsiW26_N4do-76" value="Addr" style="text;html=1;align=left;verticalAlign=middle;whiteSpace=wrap;rounded=0;fontSize=18;fontStyle=2" parent="1" vertex="1">
                    <mxGeometry x="189.99999999999994" y="557.5" width="60" height="40" as="geometry"/>
                </mxCell>
                <mxCell id="O-shyT19sQsiW26_N4do-77" value="RD" style="text;html=1;align=right;verticalAlign=middle;whiteSpace=wrap;rounded=0;fontSize=18;fontStyle=2" parent="1" vertex="1">
                    <mxGeometry x="239.99999999999994" y="557.5" width="60" height="40" as="geometry"/>
                </mxCell>
                <mxCell id="O-shyT19sQsiW26_N4do-83" value="" style="endArrow=classic;html=1;rounded=0;entryX=0.75;entryY=1;entryDx=0;entryDy=0;strokeWidth=3;" parent="1" target="O-shyT19sQsiW26_N4do-70" edge="1">
                    <mxGeometry width="50" height="50" relative="1" as="geometry">
                        <mxPoint x="119.99999999999996" y="817" as="sourcePoint"/>
                        <mxPoint x="169.99999999999994" y="770" as="targetPoint"/>
                    </mxGeometry>
                </mxCell>
                <mxCell id="O-shyT19sQsiW26_N4do-84" value="16'b1" style="text;html=1;align=left;verticalAlign=middle;whiteSpace=wrap;rounded=0;fontSize=18;fontStyle=1" parent="1" vertex="1">
                    <mxGeometry x="106.99999999999996" y="784" width="60" height="40" as="geometry"/>
                </mxCell>
                <mxCell id="O-shyT19sQsiW26_N4do-85" value="[2:0]" style="text;html=1;align=left;verticalAlign=middle;whiteSpace=wrap;rounded=0;fontSize=18;fontStyle=1" parent="1" vertex="1">
                    <mxGeometry x="703" y="622" width="37" height="40" as="geometry"/>
                </mxCell>
                <mxCell id="O-shyT19sQsiW26_N4do-86" value="[9:0]" style="text;html=1;align=left;verticalAlign=middle;whiteSpace=wrap;rounded=0;fontSize=18;fontStyle=1" parent="1" vertex="1">
                    <mxGeometry x="339.99999999999994" y="651.5" width="60" height="40" as="geometry"/>
                </mxCell>
                <mxCell id="O-shyT19sQsiW26_N4do-87" value="[6:0]" style="text;html=1;align=left;verticalAlign=middle;whiteSpace=wrap;rounded=0;fontSize=18;fontStyle=1" parent="1" vertex="1">
                    <mxGeometry x="700" y="845.5" width="60" height="40" as="geometry"/>
                </mxCell>
                <mxCell id="O-shyT19sQsiW26_N4do-88" value="" style="endArrow=classic;html=1;rounded=0;exitX=1.003;exitY=0.857;exitDx=0;exitDy=0;exitPerimeter=0;strokeWidth=3;strokeColor=#007FFF;" parent="1" source="O-shyT19sQsiW26_N4do-13" edge="1">
                    <mxGeometry width="50" height="50" relative="1" as="geometry">
                        <mxPoint x="970" y="770" as="sourcePoint"/>
                        <mxPoint x="1460" y="766" as="targetPoint"/>
                    </mxGeometry>
                </mxCell>
                <mxCell id="O-shyT19sQsiW26_N4do-89" value="wire [15:0] [7:0] &lt;span style=&quot;font-weight: normal;&quot;&gt;(all the registers)&lt;/span&gt;" style="text;html=1;align=left;verticalAlign=middle;whiteSpace=wrap;rounded=0;fontSize=18;fontStyle=1" parent="1" vertex="1">
                    <mxGeometry x="1069.25" y="730" width="350.75" height="40" as="geometry"/>
                </mxCell>
                <mxCell id="O-shyT19sQsiW26_N4do-90" value="Opcode" style="text;html=1;align=left;verticalAlign=middle;whiteSpace=wrap;rounded=0;fontSize=18;fontStyle=2" parent="1" vertex="1">
                    <mxGeometry x="763.5" y="261.99999999999994" width="80" height="40" as="geometry"/>
                </mxCell>
                <mxCell id="O-shyT19sQsiW26_N4do-91" value="&lt;font style=&quot;font-size: 22px;&quot;&gt;ALU&lt;/font&gt;" style="text;html=1;align=center;verticalAlign=middle;whiteSpace=wrap;rounded=0;fontSize=18;fontStyle=1;rotation=-90;" parent="1" vertex="1">
                    <mxGeometry x="1193" y="602.8799999999999" width="87" height="60" as="geometry"/>
                </mxCell>
                <mxCell id="3" value="&lt;font style=&quot;font-size: 53px;&quot;&gt;RISK-V module&lt;/font&gt;" style="text;html=1;strokeColor=none;fillColor=none;align=center;verticalAlign=middle;whiteSpace=wrap;rounded=0;fontStyle=1" parent="1" vertex="1">
                    <mxGeometry x="20" y="140" width="500" height="110" as="geometry"/>
                </mxCell>
                <mxCell id="4" value="LoadUpperImmediate" style="text;html=1;align=left;verticalAlign=middle;whiteSpace=wrap;rounded=0;fontSize=18;fontStyle=2" parent="1" vertex="1">
                    <mxGeometry x="856" y="247" width="194" height="40" as="geometry"/>
                </mxCell>
                <mxCell id="14" value="UpdateFlags" style="text;html=1;align=right;verticalAlign=middle;whiteSpace=wrap;rounded=0;fontSize=18;fontStyle=2" parent="1" vertex="1">
                    <mxGeometry x="850" y="507" width="104" height="40" as="geometry"/>
                </mxCell>
                <mxCell id="17" value="UpdateFlags" style="text;html=1;align=left;verticalAlign=middle;whiteSpace=wrap;rounded=0;fontSize=18;fontStyle=2" parent="1" vertex="1">
                    <mxGeometry x="856" y="180" width="194" height="40" as="geometry"/>
                </mxCell>
            </root>
        </mxGraphModel>
    </diagram>
</mxfile>